<?xml version="1.0" encoding="UTF-8" standalone="no"?>
<!-- Created with Inkscape (http://www.inkscape.org/) -->

<svg
   xmlns:dc="http://purl.org/dc/elements/1.1/"
   xmlns:cc="http://creativecommons.org/ns#"
   xmlns:rdf="http://www.w3.org/1999/02/22-rdf-syntax-ns#"
   xmlns:svg="http://www.w3.org/2000/svg"
   xmlns="http://www.w3.org/2000/svg"
   xmlns:sodipodi="http://sodipodi.sourceforge.net/DTD/sodipodi-0.dtd"
   xmlns:inkscape="http://www.inkscape.org/namespaces/inkscape"
   width="600mm"
   height="400mm"
   viewBox="0 0 600 400"
   version="1.1"
   id="svg8"
   inkscape:version="0.92.4 (5da689c313, 2019-01-14)"
   sodipodi:docname="404.svg">
  <defs
     id="defs2" />
  <sodipodi:namedview
     id="base"
     pagecolor="#ffffff"
     bordercolor="#666666"
     borderopacity="1.0"
     inkscape:pageopacity="0.0"
     inkscape:pageshadow="2"
     inkscape:zoom="0.24748737"
     inkscape:cx="963.95914"
     inkscape:cy="864.67183"
     inkscape:document-units="mm"
     inkscape:current-layer="layer1"
     showgrid="false"
     inkscape:window-width="1920"
     inkscape:window-height="1023"
     inkscape:window-x="0"
     inkscape:window-y="26"
     inkscape:window-maximized="1" />
  <metadata
     id="metadata5">
    <rdf:RDF>
      <cc:Work
         rdf:about="">
        <dc:format>image/svg+xml</dc:format>
        <dc:type
           rdf:resource="http://purl.org/dc/dcmitype/StillImage" />
        <dc:title></dc:title>
      </cc:Work>
    </rdf:RDF>
  </metadata>
  <g
     inkscape:label="Layer 1"
     inkscape:groupmode="layer"
     id="layer1"
     transform="translate(0,103)">
    <text
       xml:space="preserve"
       style="font-style:normal;font-weight:normal;font-size:118.90775299px;line-height:1.25;font-family:sans-serif;letter-spacing:0px;word-spacing:0px;fill:#000000;fill-opacity:1;stroke:none;stroke-width:2.97269392"
       x="296.5451"
       y="70.026459"
       id="text817"><tspan
         sodipodi:role="line"
         id="tspan815"
         x="296.5451"
         y="70.026459"
         style="font-style:normal;font-variant:normal;font-weight:normal;font-stretch:normal;line-height:0;font-family:'Titillium Web';-inkscape-font-specification:'Titillium Web';text-align:center;text-anchor:middle;stroke-width:2.97269392">4-SE   -4</tspan><tspan
         sodipodi:role="line"
         x="296.5451"
         y="218.66115"
         style="font-style:normal;font-variant:normal;font-weight:normal;font-stretch:normal;line-height:0;font-family:'Titillium Web';-inkscape-font-specification:'Titillium Web';text-align:center;text-anchor:middle;stroke-width:2.97269392"
         id="tspan819">ERROR</tspan></text>
    <circle
       style="fill:#000000;fill-opacity:1;stroke:none;stroke-width:2.30121756"
       id="path821"
       cx="360.19559"
       cy="29.042597"
       r="41.842453" />
    <circle
       r="35.062084"
       cy="29.042597"
       cx="360.19559"
       id="circle838"
       style="fill:#ff0000;fill-opacity:1;stroke:none;stroke-width:1.92831612" />
    <circle
       style="fill:#ffffff;fill-opacity:1;stroke:none;stroke-width:1.4085139"
       id="circle840"
       cx="360.19559"
       cy="29.042597"
       r="25.610651" />
    <circle
       r="9.1733799"
       cy="29.042597"
       cx="360.19559"
       id="circle842"
       style="fill:#ff0000;fill-opacity:1;stroke:none;stroke-width:0.50451022" />
    <path
       style="fill:#b3b3b3;fill-opacity:1;fill-rule:nonzero;stroke:#757575;stroke-width:1.3151989px;stroke-linecap:butt;stroke-linejoin:miter;stroke-opacity:1"
       d="M -41.039655,200.48505 -41.09662,89.575572"
       id="path852"
       inkscape:connector-curvature="0"
       sodipodi:nodetypes="cc" />
    <path
       style="fill:none;stroke:#ff0000;stroke-width:1.3151989px;stroke-linecap:butt;stroke-linejoin:miter;stroke-opacity:1"
       d="m -41.386312,110.73436 7.971308,-14.946243"
       id="path854"
       inkscape:connector-curvature="0" />
    <path
       inkscape:connector-curvature="0"
       id="path856"
       d="M -40.891034,110.73436 -48.862351,95.788117"
       style="fill:none;stroke:#ff0000;stroke-width:1.3151989px;stroke-linecap:butt;stroke-linejoin:miter;stroke-opacity:1" />
    <path
       inkscape:connector-curvature="0"
       id="path858"
       d="m -41.386312,102.84312 7.971308,-14.94624"
       style="fill:none;stroke:#ff0000;stroke-width:1.3151989px;stroke-linecap:butt;stroke-linejoin:miter;stroke-opacity:1" />
    <path
       style="fill:none;stroke:#ff0000;stroke-width:1.3151989px;stroke-linecap:butt;stroke-linejoin:miter;stroke-opacity:1"
       d="M -40.891034,102.84312 -48.862351,87.89688"
       id="path860"
       inkscape:connector-curvature="0" />
    <path
       style="fill:none;stroke:#ff0000;stroke-width:1.3151989px;stroke-linecap:butt;stroke-linejoin:miter;stroke-opacity:1"
       d="m -41.386312,118.62561 7.971308,-14.94625"
       id="path862"
       inkscape:connector-curvature="0" />
    <path
       inkscape:connector-curvature="0"
       id="path864"
       d="m -40.891034,118.62561 -7.971317,-14.94625"
       style="fill:none;stroke:#ff0000;stroke-width:1.3151989px;stroke-linecap:butt;stroke-linejoin:miter;stroke-opacity:1" />
    <path
       inkscape:connector-curvature="0"
       id="path866"
       d="m -41.386312,126.51684 7.971308,-14.94623"
       style="fill:none;stroke:#ff0000;stroke-width:1.3151989px;stroke-linecap:butt;stroke-linejoin:miter;stroke-opacity:1" />
    <path
       style="fill:none;stroke:#ff0000;stroke-width:1.3151989px;stroke-linecap:butt;stroke-linejoin:miter;stroke-opacity:1"
       d="m -40.891034,126.51684 -7.971317,-14.94623"
       id="path868"
       inkscape:connector-curvature="0" />
    <path
       style="fill:none;stroke:#3f3f3f;stroke-width:1.52048278px;stroke-linecap:butt;stroke-linejoin:miter;stroke-opacity:1"
       d="m -41.019708,200.51249 c 0.951227,0.21623 1.869033,0.17199 2.84436,0.17199 h 0.324802 c 0.108261,0 0.248237,-0.0531 0.324839,0 0.685179,0.47919 0.59168,0.95455 1.623991,1.13494 0.210059,0.0398 0.433099,0 0.649567,0 h 1.623982 0.649577 c 0.108261,0 0.227961,-0.0349 0.324838,0 0.136954,0.0498 0.187903,0.17895 0.324793,0.22717 0.10355,0.0348 1.333715,0 1.624,0"
       id="path902"
       inkscape:connector-curvature="0"
       sodipodi:nodetypes="cssccscsccc" />
    <path
       style="fill:none;stroke:#3f3f3f;stroke-width:1.3151989px;stroke-linecap:butt;stroke-linejoin:miter;stroke-opacity:1"
       d="m -41.039655,200.48505 c 0.823357,-0.0248 0.799,-1.09741 1.352156,-1.4662 0.145654,-0.0974 0.345926,-0.11035 0.469698,-0.23462 0.123771,-0.12377 0.129842,-0.32957 0.234872,-0.46975 0.05587,-0.075 1.027463,-1.07633 1.174286,-1.1742 0.342247,-0.22816 0.489179,-0.14665 0.704569,-0.46975 0.517425,-0.1183 0.124128,-0.48316 0.234872,-0.70451 0.04975,-0.0989 0.185356,-0.13571 0.234872,-0.23512 0.03478,-0.0696 -0.03478,-0.16503 0,-0.23463 0.03131,-0.0616 0.642218,-0.67334 0.704569,-0.70451 0.07002,-0.0348 0.164834,0.0348 0.234872,0"
       id="path904"
       inkscape:connector-curvature="0"
       sodipodi:nodetypes="ccccccccccc" />
    <path
       style="fill:none;stroke:#3f3f3f;stroke-width:1.3151989px;stroke-linecap:butt;stroke-linejoin:miter;stroke-opacity:1"
       d="m -41.039655,200.48505 c -0.0189,0.0592 0.0018,0.19684 -0.05696,0.17796 -0.05925,-0.0199 0.0482,-0.2396 0.05696,-0.17796 0.08627,0.60405 0.130646,1.21353 0.177861,1.82181 0.01196,0.15609 0,0.31316 0,0.46975 0.07833,0.31315 0.18919,0.61985 0.234872,0.93943 0.101606,0.71098 -0.180737,0.62011 0.234872,1.17421 0.132873,0.17696 0.313162,0.31316 0.469688,0.46975 0.234881,0.23461 0.469698,0.46973 0.704579,0.70456 0.123626,0.12378 0.579137,0.64178 0.70457,0.70451 0.07002,0.0348 0.179495,-0.0551 0.234872,0"
       id="path906"
       inkscape:connector-curvature="0"
       sodipodi:nodetypes="ccccccccccc" />
    <path
       style="fill:none;stroke:#3f3f3f;stroke-width:1.3151989px;stroke-linecap:butt;stroke-linejoin:miter;stroke-opacity:1"
       d="m -41.039655,200.48505 c -1.036474,-0.0616 -2.073112,-0.0567 -3.110116,-0.0567 h -1.174295 -0.234862 c -0.07833,0 -0.164834,0.0348 -0.234881,0 -0.09901,-0.0502 -0.135849,-0.18542 -0.234872,-0.23513 -0.375002,-0.18739 -0.277915,0.48913 -0.469689,-0.46973 -0.127103,-0.63563 0.244567,-2.10406 -0.234871,-2.58345 -0.123781,-0.12378 -0.324045,-0.13769 -0.469698,-0.23462 -0.184215,-0.12229 -0.285474,-0.34697 -0.469698,-0.46975 -0.145636,-0.0974 -0.345918,-0.11185 -0.469689,-0.23511 -0.123771,-0.12378 -0.07833,-0.39121 -0.234872,-0.46975 -0.311565,-0.15559 -0.219763,0.43942 -0.234872,0.46975 -0.04975,0.0989 -0.142759,0.17347 -0.234871,0.23511"
       id="path908"
       inkscape:connector-curvature="0"
       sodipodi:nodetypes="cscscccccccccc" />
    <path
       style="fill:none;stroke:#3f3f3f;stroke-width:1.3151989px;stroke-linecap:butt;stroke-linejoin:miter;stroke-opacity:1"
       d="m -41.039655,200.48505 c -0.84606,-0.36933 -2.212083,2.08775 -3.110116,2.76124 -0.242978,0.18243 -0.937469,0.4106 -1.174295,0.46975 -0.07595,0.0199 -0.164833,-0.0348 -0.234862,0 -0.09902,0.0498 -0.129842,0.19983 -0.234881,0.23463 -0.148529,0.0501 -0.32116,-0.0502 -0.469698,0 -0.10503,0.0348 -0.156581,0.15657 -0.234863,0.23511 -0.07833,0.079 -0.156581,0.15659 -0.234871,0.23512 -0.184526,0.18442 -1.024689,1.09951 -1.174286,1.17422 -0.258233,0.12873 -0.474071,-0.22618 -0.70457,0.23512 -0.06929,0.13868 0.05386,0.54305 0,0.70457 -0.05541,0.16602 -0.179495,0.30371 -0.234872,0.46973 -0.02492,0.0736 0.05541,0.17945 0,0.23462 -0.123771,0.12378 -0.324053,0.1377 -0.469698,0.23463"
       id="path910"
       inkscape:connector-curvature="0"
       sodipodi:nodetypes="cccccccccccccc" />
    <path
       sodipodi:nodetypes="cc"
       inkscape:connector-curvature="0"
       id="path912"
       d="M 151.51016,83.600134 174.36324,-24.929352"
       style="fill:#b3b3b3;fill-opacity:1;fill-rule:nonzero;stroke:#757575;stroke-width:1.3151989px;stroke-linecap:butt;stroke-linejoin:miter;stroke-opacity:1" />
    <path
       inkscape:connector-curvature="0"
       id="path914"
       d="M 169.70936,-4.2866848 180.59597,-17.264083"
       style="fill:none;stroke:#ff0000;stroke-width:1.3151989px;stroke-linecap:butt;stroke-linejoin:miter;stroke-opacity:1" />
    <path
       style="fill:none;stroke:#ff0000;stroke-width:1.3151989px;stroke-linecap:butt;stroke-linejoin:miter;stroke-opacity:1"
       d="m 170.19395,-4.1843858 -4.7122,-16.2704232"
       id="path916"
       inkscape:connector-curvature="0" />
    <path
       style="fill:none;stroke:#ff0000;stroke-width:1.3151989px;stroke-linecap:butt;stroke-linejoin:miter;stroke-opacity:1"
       d="m 171.33932,-12.007778 10.88663,-12.977396"
       id="path918"
       inkscape:connector-curvature="0" />
    <path
       inkscape:connector-curvature="0"
       id="path920"
       d="m 171.82392,-11.905428 -4.7122,-16.270473"
       style="fill:none;stroke:#ff0000;stroke-width:1.3151989px;stroke-linecap:butt;stroke-linejoin:miter;stroke-opacity:1" />
    <path
       inkscape:connector-curvature="0"
       id="path922"
       d="M 168.07939,3.4344074 178.96601,-9.5430409"
       style="fill:none;stroke:#ff0000;stroke-width:1.3151989px;stroke-linecap:butt;stroke-linejoin:miter;stroke-opacity:1" />
    <path
       style="fill:none;stroke:#ff0000;stroke-width:1.3151989px;stroke-linecap:butt;stroke-linejoin:miter;stroke-opacity:1"
       d="M 168.56397,3.5367031 163.85178,-12.733767"
       id="path924"
       inkscape:connector-curvature="0" />
    <path
       style="fill:none;stroke:#ff0000;stroke-width:1.3151989px;stroke-linecap:butt;stroke-linejoin:miter;stroke-opacity:1"
       d="M 166.44943,11.155451 177.33604,-1.821948"
       id="path926"
       inkscape:connector-curvature="0" />
    <path
       inkscape:connector-curvature="0"
       id="path928"
       d="M 166.93401,11.257747 162.22182,-5.0126749"
       style="fill:none;stroke:#ff0000;stroke-width:1.3151989px;stroke-linecap:butt;stroke-linejoin:miter;stroke-opacity:1" />
    <path
       sodipodi:nodetypes="cssccscsccc"
       inkscape:connector-curvature="0"
       id="path930"
       d="m 151.524,83.631108 c 0.88606,0.408106 1.79321,0.554347 2.7475,0.755814 l 0.3178,0.06714 c 0.10592,0.02482 0.25386,-7.48e-4 0.31783,0.06713 0.57142,0.610417 0.38176,1.056204 1.35454,1.445912 0.19733,0.08253 0.42376,0.08947 0.63555,0.134211 l 1.58897,0.335536 0.63556,0.134211 c 0.10593,0.02482 0.23024,0.01495 0.31784,0.06714 0.12372,0.07705 0.14688,0.213743 0.27086,0.289304 0.0941,0.05518 1.30495,0.275384 1.58897,0.335528"
       style="fill:none;stroke:#3f3f3f;stroke-width:1.52048278px;stroke-linecap:butt;stroke-linejoin:miter;stroke-opacity:1" />
    <path
       sodipodi:nodetypes="ccccccccccc"
       inkscape:connector-curvature="0"
       id="path932"
       d="m 151.51016,83.600134 c 0.81073,0.14565 1.00844,-0.908716 1.62584,-1.155271 0.16265,-0.06512 0.36123,-0.03476 0.50804,-0.132716 0.14668,-0.09544 0.1951,-0.295762 0.32683,-0.411089 0.0701,-0.06212 1.22762,-0.840863 1.39149,-0.906331 0.38202,-0.152602 0.50893,-0.0447 0.78641,-0.314154 0.53071,-0.0099 0.22125,-0.447379 0.37534,-0.640847 0.0691,-0.08649 0.20943,-0.09444 0.27838,-0.18143 0.0482,-0.06063 4e-5,-0.168512 0.0482,-0.229652 0.0433,-0.05368 0.76745,-0.526162 0.8349,-0.543813 0.0757,-0.01988 0.1541,0.06811 0.2298,0.04972"
       style="fill:none;stroke:#3f3f3f;stroke-width:1.3151989px;stroke-linecap:butt;stroke-linejoin:miter;stroke-opacity:1" />
    <path
       sodipodi:nodetypes="ccccccccccc"
       inkscape:connector-curvature="0"
       id="path934"
       d="m 151.51016,83.600134 c -0.0308,0.0542 -0.0383,0.192869 -0.0925,0.162546 -0.0539,-0.02983 0.0967,-0.22468 0.0925,-0.162546 -0.0403,0.608879 -0.12283,1.214377 -0.20227,1.819278 -0.0204,0.155092 -0.0646,0.3062 -0.097,0.459805 0.012,0.322602 0.0571,0.645556 0.0358,0.967717 -0.0473,0.716594 -0.30491,0.569359 -0.013,1.197376 0.0935,0.200824 0.24173,0.371317 0.36252,0.556635 0.18134,0.277865 0.36253,0.556635 0.54385,0.834897 0.0954,0.146644 0.4341,0.747567 0.54385,0.834851 0.0613,0.04972 0.18701,-0.01488 0.22982,0.04972"
       style="fill:none;stroke:#3f3f3f;stroke-width:1.3151989px;stroke-linecap:butt;stroke-linejoin:miter;stroke-opacity:1" />
    <path
       sodipodi:nodetypes="cscscccccccccc"
       inkscape:connector-curvature="0"
       id="path936"
       d="m 151.51016,83.600134 c -1.00141,-0.274388 -2.01671,-0.48366 -3.03135,-0.697851 l -1.14896,-0.242578 -0.2298,-0.04972 c -0.0766,-0.01488 -0.16847,0 -0.2298,-0.04972 -0.0865,-0.0696 -0.0947,-0.209272 -0.18124,-0.278366 -0.32822,-0.260969 -0.37296,0.421032 -0.36252,-0.556635 0.006,-0.648195 0.67389,-2.008163 0.30381,-2.576229 -0.0955,-0.146644 -0.28861,-0.201817 -0.41109,-0.326586 -0.15499,-0.157575 -0.20763,-0.398657 -0.36252,-0.556635 -0.12238,-0.125263 -0.31534,-0.180938 -0.41099,-0.327081 -0.0955,-0.146636 0.005,-0.399157 -0.13277,-0.508115 -0.27269,-0.216725 -0.3058,0.384744 -0.32683,0.41109 -0.069,0.08649 -0.17551,0.140177 -0.27836,0.181431"
       style="fill:none;stroke:#3f3f3f;stroke-width:1.3151989px;stroke-linecap:butt;stroke-linejoin:miter;stroke-opacity:1" />
    <path
       sodipodi:nodetypes="cccccccccccccc"
       inkscape:connector-curvature="0"
       id="path938"
       d="m 151.51016,83.600134 c -0.75153,-0.536098 -2.59562,1.585851 -3.6134,2.059321 -0.27543,0.128246 -1.00206,0.208278 -1.24599,0.217227 -0.0784,0.0037 -0.1541,-0.06811 -0.2298,-0.04972 -0.10718,0.02983 -0.16832,0.168512 -0.27827,0.180937 -0.15569,0.01988 -0.30387,-0.115327 -0.45955,-0.09694 -0.10996,0.0099 -0.18557,0.120791 -0.27837,0.181437 -0.0929,0.06116 -0.18556,0.120792 -0.27837,0.181439 -0.21862,0.142165 -1.2297,0.864128 -1.3915,0.90633 -0.27926,0.07259 -0.41715,-0.319125 -0.73794,0.08451 -0.0964,0.121285 -0.0595,0.542467 -0.14555,0.689403 -0.0885,0.151115 -0.23834,0.259975 -0.32683,0.41109 -0.0392,0.06714 0.0169,0.186903 -0.0482,0.229652 -0.14669,0.09544 -0.34551,0.06758 -0.50803,0.132723"
       style="fill:none;stroke:#3f3f3f;stroke-width:1.3151989px;stroke-linecap:butt;stroke-linejoin:miter;stroke-opacity:1" />
    <path
       style="fill:#b3b3b3;fill-opacity:1;fill-rule:nonzero;stroke:#757575;stroke-width:1.3151989px;stroke-linecap:butt;stroke-linejoin:miter;stroke-opacity:1"
       d="M 288.79629,161.24794 190.34662,110.17376"
       id="path940"
       inkscape:connector-curvature="0"
       sodipodi:nodetypes="cc" />
    <path
       style="fill:none;stroke:#ff0000;stroke-width:1.3151989px;stroke-linecap:butt;stroke-linejoin:miter;stroke-opacity:1"
       d="M 208.98984,120.18416 199.4007,106.22065"
       id="path942"
       inkscape:connector-curvature="0" />
    <path
       inkscape:connector-curvature="0"
       id="path944"
       d="m 209.21814,119.74464 -16.93805,0.18442"
       style="fill:none;stroke:#ff0000;stroke-width:1.3151989px;stroke-linecap:butt;stroke-linejoin:miter;stroke-opacity:1" />
    <path
       inkscape:connector-curvature="0"
       id="path946"
       d="m 201.98696,116.54661 -9.58914,-13.96352"
       style="fill:none;stroke:#ff0000;stroke-width:1.3151989px;stroke-linecap:butt;stroke-linejoin:miter;stroke-opacity:1" />
    <path
       style="fill:none;stroke:#ff0000;stroke-width:1.3151989px;stroke-linecap:butt;stroke-linejoin:miter;stroke-opacity:1"
       d="m 202.21531,116.10708 -16.9381,0.18443"
       id="path948"
       inkscape:connector-curvature="0" />
    <path
       style="fill:none;stroke:#ff0000;stroke-width:1.3151989px;stroke-linecap:butt;stroke-linejoin:miter;stroke-opacity:1"
       d="M 215.99271,123.82171 206.40353,109.8582"
       id="path950"
       inkscape:connector-curvature="0" />
    <path
       inkscape:connector-curvature="0"
       id="path952"
       d="m 216.22101,123.38219 -16.93809,0.18443"
       style="fill:none;stroke:#ff0000;stroke-width:1.3151989px;stroke-linecap:butt;stroke-linejoin:miter;stroke-opacity:1" />
    <path
       inkscape:connector-curvature="0"
       id="path954"
       d="m 222.99554,127.45926 -9.58913,-13.9635"
       style="fill:none;stroke:#ff0000;stroke-width:1.3151989px;stroke-linecap:butt;stroke-linejoin:miter;stroke-opacity:1" />
    <path
       style="fill:none;stroke:#ff0000;stroke-width:1.3151989px;stroke-linecap:butt;stroke-linejoin:miter;stroke-opacity:1"
       d="m 223.22383,127.01975 -16.93804,0.18442"
       id="path956"
       inkscape:connector-curvature="0" />
    <path
       style="fill:none;stroke:#3f3f3f;stroke-width:1.52048278px;stroke-linecap:butt;stroke-linejoin:miter;stroke-opacity:1"
       d="m 288.82983,161.24292 c 0.63042,-0.74448 1.01419,-1.57933 1.46378,-2.44484 l 0.14973,-0.28832 c 0.0522,-0.0954 0.0673,-0.24456 0.14971,-0.28831 0.74112,-0.38723 1.11986,-0.085 1.75578,-0.91796 0.13232,-0.16802 0.19967,-0.38424 0.29944,-0.57647 l 0.74868,-1.44114 0.29945,-0.57642 c 0.0523,-0.0954 0.076,-0.21772 0.14972,-0.28831 0.10737,-0.0984 0.24526,-0.0845 0.35123,-0.18342 0.0783,-0.076 0.6147,-1.18361 0.74868,-1.44115"
       id="path958"
       inkscape:connector-curvature="0"
       sodipodi:nodetypes="cssccscsccc" />
    <path
       style="fill:none;stroke:#3f3f3f;stroke-width:1.3151989px;stroke-linecap:butt;stroke-linejoin:miter;stroke-opacity:1"
       d="m 288.79629,161.24794 c 0.35735,-0.74214 -0.60557,-1.21487 -0.67784,-1.87574 -0.0194,-0.17397 0.0632,-0.3574 0.008,-0.52502 -0.0527,-0.16702 -0.23272,-0.26693 -0.30858,-0.42501 -0.0413,-0.0845 -0.48153,-1.40794 -0.50072,-1.58335 -0.0447,-0.4091 0.0932,-0.50236 -0.0922,-0.84182 0.13251,-0.51398 -0.37182,-0.33304 -0.51696,-0.53321 -0.0648,-0.09 -0.0348,-0.22717 -0.10027,-0.31664 -0.0457,-0.0626 -0.16234,-0.0447 -0.20837,-0.10787 -0.0403,-0.0562 -0.30148,-0.88029 -0.30043,-0.95003 7.4e-4,-0.0781 0.10686,-0.13024 0.1094,-0.20828"
       id="path960"
       inkscape:connector-curvature="0"
       sodipodi:nodetypes="ccccccccccc" />
    <path
       style="fill:none;stroke:#3f3f3f;stroke-width:1.3151989px;stroke-linecap:butt;stroke-linejoin:miter;stroke-opacity:1"
       d="m 288.79629,161.24794 c 0.0437,0.0447 0.17557,0.0885 0.13183,0.13272 -0.0433,0.0447 -0.19059,-0.1531 -0.13183,-0.13272 0.57586,0.20182 1.13715,0.4434 1.69871,0.68195 0.14395,0.0612 0.27772,0.14416 0.41705,0.21673 0.31401,0.075 0.63728,0.11781 0.94198,0.22468 0.67779,0.23761 0.46696,0.44638 1.15021,0.33304 0.21851,-0.0348 0.42247,-0.13371 0.63336,-0.20032 0.3163,-0.10041 0.63337,-0.20032 0.95003,-0.30073 0.16681,-0.0527 0.83649,-0.21822 0.94997,-0.30074 0.0643,-0.0447 0.0358,-0.18392 0.10941,-0.20828"
       id="path962"
       inkscape:connector-curvature="0"
       sodipodi:nodetypes="ccccccccccc" />
    <path
       style="fill:none;stroke:#3f3f3f;stroke-width:1.3151989px;stroke-linecap:butt;stroke-linejoin:miter;stroke-opacity:1"
       d="m 288.79629,161.24794 c -0.53247,0.89143 -1.00592,1.81361 -1.48393,2.73391 l -0.54132,1.04203 -0.10941,0.20828 c -0.0348,0.0696 -0.0452,0.16205 -0.10942,0.20827 -0.0902,0.0646 -0.22696,0.0349 -0.31674,0.0999 -0.3393,0.24655 0.30581,0.47223 -0.63337,0.20032 -0.62266,-0.18045 -1.75444,-1.18693 -2.40085,-0.98244 -0.16687,0.0527 -0.2717,0.22419 -0.42471,0.30869 -0.19331,0.10737 -0.43971,0.0934 -0.63337,0.20033 -0.15345,0.0845 -0.25872,0.2555 -0.42515,0.30819 -0.16687,0.0527 -0.38345,-0.11085 -0.52511,-0.01 -0.28185,0.2048 0.2888,0.39767 0.30858,0.425 0.0649,0.0895 0.0881,0.20678 0.10032,0.31664"
       id="path964"
       inkscape:connector-curvature="0"
       sodipodi:nodetypes="cscscccccccccc" />
    <path
       style="fill:none;stroke:#3f3f3f;stroke-width:1.3151989px;stroke-linecap:butt;stroke-linejoin:miter;stroke-opacity:1"
       d="m 288.79629,161.24794 c -0.71774,0.58059 0.83306,2.92544 1.01677,4.03284 0.0498,0.29974 -0.0676,1.02125 -0.12427,1.25866 -0.0174,0.0766 -0.10688,0.13024 -0.10941,0.20828 5e-5,0.11135 0.11731,0.20728 0.0999,0.31664 -0.0224,0.15508 -0.19246,0.26197 -0.21643,0.41656 -0.0199,0.10886 0.0667,0.21126 0.10031,0.31664 0.0338,0.10588 0.0667,0.21125 0.10031,0.31664 0.0784,0.24855 0.50338,1.41614 0.50072,1.58336 -0.005,0.28831 -0.41914,0.31665 -0.11611,0.7336 0.091,0.12526 0.50673,0.20281 0.62527,0.32459 0.12188,0.12576 0.18665,0.29924 0.30859,0.42501 0.0541,0.0557 0.18461,0.0348 0.20837,0.10786 0.0527,0.16702 -0.0274,0.35095 -0.008,0.52502"
       id="path966"
       inkscape:connector-curvature="0"
       sodipodi:nodetypes="cccccccccccccc" />
    <path
       sodipodi:nodetypes="cc"
       inkscape:connector-curvature="0"
       id="path968"
       d="M 366.24971,180.42029 431.23804,90.545829"
       style="fill:#b3b3b3;fill-opacity:1;fill-rule:nonzero;stroke:#757575;stroke-width:1.3151989px;stroke-linecap:butt;stroke-linejoin:miter;stroke-opacity:1" />
    <path
       inkscape:connector-curvature="0"
       id="path970"
       d="m 418.59641,107.5154 15.2212,-7.43288"
       style="fill:none;stroke:#ff0000;stroke-width:1.3151989px;stroke-linecap:butt;stroke-linejoin:miter;stroke-opacity:1" />
    <path
       style="fill:none;stroke:#ff0000;stroke-width:1.3151989px;stroke-linecap:butt;stroke-linejoin:miter;stroke-opacity:1"
       d="m 418.99762,107.8058 2.30707,-16.78123"
       id="path972"
       inkscape:connector-curvature="0" />
    <path
       style="fill:none;stroke:#ff0000;stroke-width:1.3151989px;stroke-linecap:butt;stroke-linejoin:miter;stroke-opacity:1"
       d="m 423.22361,101.12311 15.22124,-7.432882"
       id="path974"
       inkscape:connector-curvature="0" />
    <path
       inkscape:connector-curvature="0"
       id="path976"
       d="m 423.62486,101.41366 2.30705,-16.781327"
       style="fill:none;stroke:#ff0000;stroke-width:1.3151989px;stroke-linecap:butt;stroke-linejoin:miter;stroke-opacity:1" />
    <path
       inkscape:connector-curvature="0"
       id="path978"
       d="m 413.96914,113.90764 15.22119,-7.43293"
       style="fill:none;stroke:#ff0000;stroke-width:1.3151989px;stroke-linecap:butt;stroke-linejoin:miter;stroke-opacity:1" />
    <path
       style="fill:none;stroke:#ff0000;stroke-width:1.3151989px;stroke-linecap:butt;stroke-linejoin:miter;stroke-opacity:1"
       d="m 414.37036,114.19799 2.30707,-16.781183"
       id="path980"
       inkscape:connector-curvature="0" />
    <path
       style="fill:none;stroke:#ff0000;stroke-width:1.3151989px;stroke-linecap:butt;stroke-linejoin:miter;stroke-opacity:1"
       d="m 409.34196,120.29983 15.22116,-7.43288"
       id="path982"
       inkscape:connector-curvature="0" />
    <path
       inkscape:connector-curvature="0"
       id="path984"
       d="M 409.74312,120.59022 412.05016,103.809"
       style="fill:none;stroke:#ff0000;stroke-width:1.3151989px;stroke-linecap:butt;stroke-linejoin:miter;stroke-opacity:1" />
    <path
       sodipodi:nodetypes="cssccscsccc"
       inkscape:connector-curvature="0"
       id="path986"
       d="m 366.24975,180.45424 c 0.64372,0.7329 1.4131,1.23525 2.20317,1.80714 l 0.26316,0.19089 c 0.0869,0.0661 0.23209,0.1024 0.26291,0.19038 0.27409,0.79001 -0.0803,1.12023 0.64993,1.87161 0.14684,0.15559 0.35079,0.25451 0.52618,0.38076 l 1.31555,0.95242 0.52613,0.38077 c 0.0867,0.0656 0.20421,0.10737 0.26316,0.19088 0.082,0.12079 0.0477,0.255 0.12974,0.3743 0.0636,0.089 1.08042,0.78201 1.31549,0.95236"
       style="fill:none;stroke:#3f3f3f;stroke-width:1.52048278px;stroke-linecap:butt;stroke-linejoin:miter;stroke-opacity:1" />
    <path
       sodipodi:nodetypes="ccccccccccc"
       inkscape:connector-curvature="0"
       id="path988"
       d="m 366.24971,180.42029 c 0.68143,0.46278 1.29059,-0.42053 1.95499,-0.39468 0.17507,0.005 0.34422,0.11482 0.51816,0.085 0.17288,-0.0299 0.29894,-0.18939 0.46492,-0.24457 0.0906,-0.0249 1.46348,-0.26941 1.63972,-0.26246 0.411,0.0149 0.48326,0.16603 0.84625,0.0348 0.48889,0.20629 0.3838,-0.31913 0.60361,-0.43297 0.0985,-0.0512 0.23005,-7.5e-4 0.32813,-0.0527 0.068,-0.0349 0.0692,-0.15361 0.1374,-0.19039 0.0599,-0.0348 0.91507,-0.16851 0.98376,-0.15758 0.078,0.0149 0.11299,0.12477 0.18954,0.13869"
       style="fill:none;stroke:#3f3f3f;stroke-width:1.3151989px;stroke-linecap:butt;stroke-linejoin:miter;stroke-opacity:1" />
    <path
       sodipodi:nodetypes="ccccccccccc"
       inkscape:connector-curvature="0"
       id="path990"
       d="m 366.24971,180.42029 c -0.0499,0.0398 -0.11358,0.16055 -0.15131,0.10985 -0.0378,-0.0497 0.17939,-0.16603 0.15131,-0.10985 -0.28324,0.54043 -0.60569,1.05958 -0.92371,1.58037 -0.0818,0.13322 -0.18159,0.25451 -0.27484,0.38127 -0.12019,0.29974 -0.21041,0.61295 -0.36068,0.89877 -0.33484,0.63537 -0.5102,0.39617 -0.49855,1.08861 6.6e-4,0.22121 0.0707,0.43794 0.10533,0.6561 0.053,0.32758 0.10484,0.65581 0.15778,0.98393 0.0274,0.17249 0.0927,0.85945 0.15777,0.98383 0.0343,0.07 0.17652,0.0626 0.18954,0.13818"
       style="fill:none;stroke:#3f3f3f;stroke-width:1.3151989px;stroke-linecap:butt;stroke-linejoin:miter;stroke-opacity:1" />
    <path
       sodipodi:nodetypes="cscscccccccccc"
       inkscape:connector-curvature="0"
       id="path992"
       d="m 366.24971,180.42029 c -0.80353,-0.6577 -1.64609,-1.26155 -2.48617,-1.86959 l -0.95117,-0.6886 -0.18953,-0.13869 c -0.0636,-0.0447 -0.15396,-0.0686 -0.1898,-0.13869 -0.051,-0.0989 5.1e-4,-0.22965 -0.0519,-0.32757 -0.19411,-0.37182 -0.51323,0.23114 -0.10483,-0.65581 0.26966,-0.58953 1.43183,-1.56098 1.32471,-2.2303 -0.0274,-0.1725 -0.18173,-0.30173 -0.24337,-0.46577 -0.0781,-0.20679 -0.0283,-0.44887 -0.10483,-0.65581 -0.0608,-0.16453 -0.21484,-0.29377 -0.24233,-0.46576 -0.0274,-0.17299 0.16533,-0.36336 0.0858,-0.51821 -0.16165,-0.30918 -0.4348,0.22866 -0.46492,0.24457 -0.098,0.0512 -0.21758,0.0567 -0.32818,0.0527"
       style="fill:none;stroke:#3f3f3f;stroke-width:1.3151989px;stroke-linecap:butt;stroke-linejoin:miter;stroke-opacity:1" />
    <path
       sodipodi:nodetypes="cccccccccccccc"
       inkscape:connector-curvature="0"
       id="path994"
       d="m 366.24971,180.42029 c -0.4689,-0.79528 -3.01613,0.39418 -4.13847,0.41307 -0.30382,0.005 -1.00029,-0.21722 -1.22679,-0.30769 -0.0736,-0.0298 -0.11299,-0.12477 -0.18954,-0.13868 -0.11025,-0.0149 -0.22204,0.0855 -0.32822,0.0522 -0.15032,-0.0447 -0.231,-0.22916 -0.38002,-0.27539 -0.10508,-0.0348 -0.21887,0.0348 -0.32773,0.0527 -0.10926,0.0199 -0.21886,0.0348 -0.32817,0.0527 -0.25744,0.0398 -1.47465,0.2898 -1.63972,0.26246 -0.28449,-0.0498 -0.25153,-0.46129 -0.70859,-0.22269 -0.13749,0.0716 -0.27632,0.47073 -0.41258,0.5711 -0.14107,0.10438 -0.32384,0.14067 -0.46491,0.24456 -0.0625,0.0447 -0.0581,0.17845 -0.13735,0.19038 -0.17284,0.0299 -0.34279,-0.0785 -0.51816,-0.085"
       style="fill:none;stroke:#3f3f3f;stroke-width:1.3151989px;stroke-linecap:butt;stroke-linejoin:miter;stroke-opacity:1" />
    <path
       style="fill:#b3b3b3;fill-opacity:1;fill-rule:nonzero;stroke:#757575;stroke-width:1.3151989px;stroke-linecap:butt;stroke-linejoin:miter;stroke-opacity:1"
       d="M 380.1995,96.721543 445.18784,6.8470793"
       id="path996"
       inkscape:connector-curvature="0"
       sodipodi:nodetypes="cc" />
    <path
       style="fill:none;stroke:#ff0000;stroke-width:1.3151989px;stroke-linecap:butt;stroke-linejoin:miter;stroke-opacity:1"
       d="m 432.5462,23.816652 15.2212,-7.432885"
       id="path998"
       inkscape:connector-curvature="0" />
    <path
       inkscape:connector-curvature="0"
       id="path1000"
       d="M 432.94741,24.107047 435.25449,7.3258205"
       style="fill:none;stroke:#ff0000;stroke-width:1.3151989px;stroke-linecap:butt;stroke-linejoin:miter;stroke-opacity:1" />
    <path
       inkscape:connector-curvature="0"
       id="path1002"
       d="M 437.1734,17.424362 452.39466,9.991478"
       style="fill:none;stroke:#ff0000;stroke-width:1.3151989px;stroke-linecap:butt;stroke-linejoin:miter;stroke-opacity:1" />
    <path
       style="fill:none;stroke:#ff0000;stroke-width:1.3151989px;stroke-linecap:butt;stroke-linejoin:miter;stroke-opacity:1"
       d="M 437.57466,17.714907 439.8817,0.9335823"
       id="path1004"
       inkscape:connector-curvature="0" />
    <path
       style="fill:none;stroke:#ff0000;stroke-width:1.3151989px;stroke-linecap:butt;stroke-linejoin:miter;stroke-opacity:1"
       d="M 427.91893,30.208888 443.14011,22.77596"
       id="path1006"
       inkscape:connector-curvature="0" />
    <path
       inkscape:connector-curvature="0"
       id="path1008"
       d="m 428.32015,30.499239 2.30707,-16.781174"
       style="fill:none;stroke:#ff0000;stroke-width:1.3151989px;stroke-linecap:butt;stroke-linejoin:miter;stroke-opacity:1" />
    <path
       inkscape:connector-curvature="0"
       id="path1010"
       d="M 423.29175,36.601081 438.5129,29.168197"
       style="fill:none;stroke:#ff0000;stroke-width:1.3151989px;stroke-linecap:butt;stroke-linejoin:miter;stroke-opacity:1" />
    <path
       style="fill:none;stroke:#ff0000;stroke-width:1.3151989px;stroke-linecap:butt;stroke-linejoin:miter;stroke-opacity:1"
       d="M 423.69291,36.891476 425.99995,20.11025"
       id="path1012"
       inkscape:connector-curvature="0" />
    <path
       style="fill:none;stroke:#3f3f3f;stroke-width:1.52048278px;stroke-linecap:butt;stroke-linejoin:miter;stroke-opacity:1"
       d="m 380.19954,96.755492 c 0.64372,0.732899 1.4131,1.23525 2.20317,1.807144 l 0.26316,0.190881 c 0.0869,0.06609 0.23209,0.1024 0.26291,0.190379 0.27409,0.790017 -0.0803,1.120234 0.64993,1.871614 0.14684,0.15559 0.3508,0.25451 0.52618,0.38077 l 1.31555,0.95242 0.52614,0.38076 c 0.0867,0.0656 0.20419,0.10737 0.26315,0.19088 0.082,0.12079 0.0477,0.255 0.12974,0.3743 0.0636,0.089 1.08042,0.78201 1.31549,0.95236"
       id="path1014"
       inkscape:connector-curvature="0"
       sodipodi:nodetypes="cssccscsccc" />
    <path
       style="fill:none;stroke:#3f3f3f;stroke-width:1.3151989px;stroke-linecap:butt;stroke-linejoin:miter;stroke-opacity:1"
       d="m 380.1995,96.721543 c 0.68143,0.46278 1.29059,-0.420532 1.95498,-0.394688 0.17508,0.0052 0.34423,0.114826 0.51817,0.085 0.17288,-0.02983 0.29895,-0.189393 0.46491,-0.244567 0.0906,-0.02482 1.4635,-0.269417 1.63973,-0.262457 0.41099,0.01488 0.48327,0.166022 0.84625,0.03476 0.48888,0.206289 0.38381,-0.319126 0.60362,-0.432957 0.0985,-0.05121 0.23005,-7.48e-4 0.32812,-0.05271 0.068,-0.03484 0.0692,-0.153604 0.1374,-0.190387 0.0599,-0.03476 0.91507,-0.168512 0.98376,-0.157574 0.078,0.01495 0.11299,0.124769 0.18954,0.13869"
       id="path1016"
       inkscape:connector-curvature="0"
       sodipodi:nodetypes="ccccccccccc" />
    <path
       style="fill:none;stroke:#3f3f3f;stroke-width:1.3151989px;stroke-linecap:butt;stroke-linejoin:miter;stroke-opacity:1"
       d="m 380.1995,96.721543 c -0.0499,0.03978 -0.11358,0.160557 -0.15131,0.109854 -0.0378,-0.04972 0.17939,-0.16603 0.15131,-0.109854 -0.28324,0.540427 -0.60569,1.059576 -0.92371,1.58037 -0.0818,0.133225 -0.18159,0.254511 -0.27484,0.381268 -0.12019,0.29974 -0.21041,0.612953 -0.36068,0.898773 -0.33484,0.635376 -0.51019,0.396174 -0.49854,1.088616 6.4e-4,0.2212 0.0707,0.43793 0.10533,0.65609 0.053,0.32758 0.10483,0.65581 0.15777,0.98393 0.0274,0.17249 0.0927,0.85946 0.15777,0.98383 0.0343,0.07 0.17652,0.0626 0.18954,0.13818"
       id="path1018"
       inkscape:connector-curvature="0"
       sodipodi:nodetypes="ccccccccccc" />
    <path
       style="fill:none;stroke:#3f3f3f;stroke-width:1.3151989px;stroke-linecap:butt;stroke-linejoin:miter;stroke-opacity:1"
       d="m 380.1995,96.721543 c -0.80353,-0.65769 -1.64609,-1.261552 -2.48617,-1.869585 l -0.95116,-0.688603 -0.18954,-0.138691 c -0.0636,-0.0447 -0.15395,-0.06856 -0.18979,-0.138681 -0.051,-0.09892 5.1e-4,-0.229659 -0.0519,-0.327582 -0.19411,-0.371817 -0.51323,0.231147 -0.10483,-0.655798 0.26967,-0.589545 1.43183,-1.560993 1.32471,-2.230315 -0.0274,-0.172489 -0.18172,-0.301729 -0.24336,-0.465771 -0.0781,-0.206781 -0.0283,-0.448866 -0.10484,-0.655797 -0.0608,-0.164535 -0.21483,-0.293775 -0.24233,-0.465771 -0.0274,-0.172982 0.16533,-0.363362 0.0858,-0.518208 -0.16165,-0.309182 -0.4348,0.228658 -0.46492,0.244567 -0.098,0.05121 -0.21757,0.05667 -0.32817,0.05271"
       id="path1020"
       inkscape:connector-curvature="0"
       sodipodi:nodetypes="cscscccccccccc" />
    <path
       style="fill:none;stroke:#3f3f3f;stroke-width:1.3151989px;stroke-linecap:butt;stroke-linejoin:miter;stroke-opacity:1"
       d="m 380.1995,96.721543 c -0.46889,-0.795288 -3.01613,0.394186 -4.13847,0.413071 -0.30382,0.0052 -1.00029,-0.217227 -1.22679,-0.307695 -0.0736,-0.02983 -0.11299,-0.124762 -0.18954,-0.138683 -0.11025,-0.01488 -0.22204,0.08549 -0.32822,0.05218 -0.15032,-0.04471 -0.23099,-0.229151 -0.38002,-0.275383 -0.10508,-0.03476 -0.21886,0.03476 -0.32773,0.0527 -0.10925,0.01988 -0.21886,0.03476 -0.32817,0.05271 -0.25744,0.03978 -1.47465,0.289797 -1.63972,0.262457 -0.28449,-0.04972 -0.25153,-0.461292 -0.70859,-0.222691 -0.13749,0.07154 -0.27632,0.470734 -0.41257,0.571101 -0.14107,0.104382 -0.32386,0.140671 -0.46493,0.244559 -0.0625,0.04478 -0.0581,0.178455 -0.13734,0.190387 -0.17283,0.02983 -0.34279,-0.07854 -0.51817,-0.085"
       id="path1022"
       inkscape:connector-curvature="0"
       sodipodi:nodetypes="cccccccccccccc" />
    <path
       sodipodi:nodetypes="cc"
       inkscape:connector-curvature="0"
       id="path1024"
       d="m 445.23084,160.72238 53.64729,97.07137"
       style="fill:#b3b3b3;fill-opacity:1;fill-rule:nonzero;stroke:#757575;stroke-width:1.3151989px;stroke-linecap:butt;stroke-linejoin:miter;stroke-opacity:1" />
    <path
       inkscape:connector-curvature="0"
       id="path1026"
       d="m 488.90675,239.12968 0.24406,16.93741"
       style="fill:none;stroke:#ff0000;stroke-width:1.3151989px;stroke-linecap:butt;stroke-linejoin:miter;stroke-opacity:1" />
    <path
       style="fill:none;stroke:#ff0000;stroke-width:1.3151989px;stroke-linecap:butt;stroke-linejoin:miter;stroke-opacity:1"
       d="m 488.4731,239.36913 14.20155,9.23296"
       id="path1028"
       inkscape:connector-curvature="0" />
    <path
       style="fill:none;stroke:#ff0000;stroke-width:1.3151989px;stroke-linecap:butt;stroke-linejoin:miter;stroke-opacity:1"
       d="m 492.72027,246.03829 0.24407,16.93746"
       id="path1030"
       inkscape:connector-curvature="0" />
    <path
       inkscape:connector-curvature="0"
       id="path1032"
       d="m 492.28652,246.27768 14.20166,9.23302"
       style="fill:none;stroke:#ff0000;stroke-width:1.3151989px;stroke-linecap:butt;stroke-linejoin:miter;stroke-opacity:1" />
    <path
       inkscape:connector-curvature="0"
       id="path1034"
       d="m 485.09328,232.22107 0.24407,16.93731"
       style="fill:none;stroke:#ff0000;stroke-width:1.3151989px;stroke-linecap:butt;stroke-linejoin:miter;stroke-opacity:1" />
    <path
       style="fill:none;stroke:#ff0000;stroke-width:1.3151989px;stroke-linecap:butt;stroke-linejoin:miter;stroke-opacity:1"
       d="m 484.65972,232.46041 14.20147,9.23298"
       id="path1036"
       inkscape:connector-curvature="0" />
    <path
       style="fill:none;stroke:#ff0000;stroke-width:1.3151989px;stroke-linecap:butt;stroke-linejoin:miter;stroke-opacity:1"
       d="m 481.27976,225.31245 0.24406,16.93732"
       id="path1038"
       inkscape:connector-curvature="0" />
    <path
       inkscape:connector-curvature="0"
       id="path1040"
       d="m 480.84625,225.55175 14.20152,9.23302"
       style="fill:none;stroke:#ff0000;stroke-width:1.3151989px;stroke-linecap:butt;stroke-linejoin:miter;stroke-opacity:1" />
    <path
       sodipodi:nodetypes="cssccscsccc"
       inkscape:connector-curvature="0"
       id="path1042"
       d="m 445.20007,160.70791 c -0.93719,0.27042 -1.71936,0.75258 -2.57324,1.22397 l -0.28434,0.15657 c -0.0969,0.0498 -0.19187,0.16653 -0.28383,0.15709 -0.83138,-0.0885 -0.97925,-0.54987 -1.97021,-0.20878 -0.2033,0.0651 -0.37976,0.20878 -0.56856,0.31366 l -1.42196,0.78475 -0.56851,0.31365 c -0.0964,0.0498 -0.18442,0.13919 -0.28433,0.15659 -0.14416,0.0249 -0.25152,-0.0636 -0.39369,-0.0398 -0.10737,0.0199 -1.16765,0.64458 -1.42191,0.78475"
       style="fill:none;stroke:#3f3f3f;stroke-width:1.52048278px;stroke-linecap:butt;stroke-linejoin:miter;stroke-opacity:1" />
    <path
       sodipodi:nodetypes="ccccccccccc"
       inkscape:connector-curvature="0"
       id="path1044"
       d="m 445.23084,160.72238 c -0.70889,0.41953 -0.16901,1.34679 -0.47521,1.93693 -0.0791,0.15609 -0.25053,0.26296 -0.29725,0.43247 -0.0447,0.169 0.0447,0.35044 0.0248,0.52476 -0.0149,0.0925 -0.37928,1.43886 -0.46079,1.59544 -0.18841,0.36585 -0.35592,0.36636 -0.39171,0.75079 -0.39518,0.35493 0.12526,0.48317 0.13472,0.73051 0.005,0.11086 -0.0974,0.20878 -0.092,0.31963 0.003,0.076 0.10985,0.12776 0.11383,0.2053 0.005,0.0691 -0.23761,0.89981 -0.27588,0.95724 -0.0447,0.0642 -0.16056,0.0512 -0.2063,0.11184"
       style="fill:none;stroke:#3f3f3f;stroke-width:1.3151989px;stroke-linecap:butt;stroke-linejoin:miter;stroke-opacity:1" />
    <path
       sodipodi:nodetypes="ccccccccccc"
       inkscape:connector-curvature="0"
       id="path1046"
       d="m 445.23084,160.72238 c -0.0149,-0.0621 -0.0964,-0.171 -0.0348,-0.18343 0.0616,-0.0149 0.0741,0.23264 0.0348,0.18343 -0.36883,-0.48665 -0.70088,-0.99924 -1.03666,-1.50875 -0.0855,-0.13122 -0.1531,-0.2724 -0.22817,-0.41109 -0.2202,-0.23661 -0.46477,-0.45135 -0.65953,-0.70924 -0.43246,-0.57368 -0.14117,-0.63035 -0.77271,-0.91463 -0.20032,-0.0935 -0.4265,-0.12277 -0.6385,-0.18393 -0.31913,-0.0915 -0.63811,-0.1844 -0.95744,-0.27637 -0.16652,-0.0507 -0.81697,-0.28234 -0.95729,-0.27638 -0.0781,0.002 -0.13222,0.13322 -0.20529,0.11234"
       style="fill:none;stroke:#3f3f3f;stroke-width:1.3151989px;stroke-linecap:butt;stroke-linejoin:miter;stroke-opacity:1" />
    <path
       sodipodi:nodetypes="cscscccccccccc"
       inkscape:connector-curvature="0"
       id="path1048"
       d="m 445.23084,160.72238 c 0.9372,-0.44688 1.84239,-0.95226 2.75021,-1.45347 l 1.02808,-0.56742 0.20578,-0.11234 c 0.0676,-0.0398 0.12725,-0.10986 0.2058,-0.11285 0.11134,-0.005 0.20778,0.0984 0.31862,0.0925 0.41905,-0.0149 0.01,-0.56279 0.63806,0.18443 0.41854,0.49508 0.80269,1.96019 1.45392,2.14823 0.16653,0.0512 0.35045,-0.0348 0.52507,-0.0249 0.22021,0.0199 0.41855,0.16454 0.63806,0.18443 0.17447,0.01 0.3569,-0.0711 0.52432,-0.0248 0.16702,0.0512 0.25848,0.30422 0.43197,0.29826 0.34845,-0.0149 -0.0199,-0.49112 -0.0249,-0.52472 -0.005,-0.11036 0.0398,-0.22121 0.0919,-0.31963"
       style="fill:none;stroke:#3f3f3f;stroke-width:1.3151989px;stroke-linecap:butt;stroke-linejoin:miter;stroke-opacity:1" />
    <path
       sodipodi:nodetypes="cccccccccccccc"
       inkscape:connector-curvature="0"
       id="path1050"
       d="m 445.23084,160.72238 c 0.91901,-0.0875 0.92756,-2.89695 1.38841,-3.9205 0.12526,-0.27687 0.62244,-0.81258 0.8008,-0.979 0.0587,-0.0537 0.16105,-0.0498 0.20579,-0.11234 0.0606,-0.0935 0.0149,-0.23711 0.0925,-0.31913 0.10488,-0.11681 0.3057,-0.11134 0.41109,-0.22667 0.0765,-0.0805 0.0616,-0.21275 0.092,-0.31913 0.0299,-0.10736 0.0616,-0.21275 0.0925,-0.31913 0.074,-0.25003 0.36585,-1.45769 0.4608,-1.59538 0.16602,-0.23612 0.52447,-0.0298 0.50325,-0.54634 -0.005,-0.1551 -0.30869,-0.45037 -0.34101,-0.61643 -0.0348,-0.1725 0.01,-0.35294 -0.0248,-0.52489 -0.0149,-0.0756 -0.1367,-0.12824 -0.11384,-0.20529 0.0447,-0.16901 0.21724,-0.27687 0.29776,-0.43245"
       style="fill:none;stroke:#3f3f3f;stroke-width:1.3151989px;stroke-linecap:butt;stroke-linejoin:miter;stroke-opacity:1" />
    <path
       sodipodi:nodetypes="cc"
       inkscape:connector-curvature="0"
       id="path1052"
       d="M 145.64023,203.82848 90.148906,107.79913"
       style="fill:#b3b3b3;fill-opacity:1;fill-rule:nonzero;stroke:#757575;stroke-width:1.3151989px;stroke-linecap:butt;stroke-linejoin:miter;stroke-opacity:1" />
    <path
       inkscape:connector-curvature="0"
       id="path1054"
       d="M 100.47496,126.26939 99.907448,109.33985"
       style="fill:none;stroke:#ff0000;stroke-width:1.3151989px;stroke-linecap:butt;stroke-linejoin:miter;stroke-opacity:1" />
    <path
       style="fill:none;stroke:#ff0000;stroke-width:1.3151989px;stroke-linecap:butt;stroke-linejoin:miter;stroke-opacity:1"
       d="M 100.90391,126.02185 86.528629,117.06178"
       id="path1056"
       inkscape:connector-curvature="0" />
    <path
       style="fill:none;stroke:#ff0000;stroke-width:1.3151989px;stroke-linecap:butt;stroke-linejoin:miter;stroke-opacity:1"
       d="m 96.530251,119.4349 -0.56752,-16.92955"
       id="path1058"
       inkscape:connector-curvature="0" />
    <path
       inkscape:connector-curvature="0"
       id="path1060"
       d="M 96.959201,119.18731 82.583912,110.22723"
       style="fill:none;stroke:#ff0000;stroke-width:1.3151989px;stroke-linecap:butt;stroke-linejoin:miter;stroke-opacity:1" />
    <path
       inkscape:connector-curvature="0"
       id="path1062"
       d="m 104.41968,133.10394 -0.56752,-16.92955"
       style="fill:none;stroke:#ff0000;stroke-width:1.3151989px;stroke-linecap:butt;stroke-linejoin:miter;stroke-opacity:1" />
    <path
       style="fill:none;stroke:#ff0000;stroke-width:1.3151989px;stroke-linecap:butt;stroke-linejoin:miter;stroke-opacity:1"
       d="M 104.84863,132.85639 90.47334,123.89633"
       id="path1064"
       inkscape:connector-curvature="0" />
    <path
       style="fill:none;stroke:#ff0000;stroke-width:1.3151989px;stroke-linecap:butt;stroke-linejoin:miter;stroke-opacity:1"
       d="m 108.36439,139.93849 -0.56752,-16.92956"
       id="path1066"
       inkscape:connector-curvature="0" />
    <path
       inkscape:connector-curvature="0"
       id="path1068"
       d="M 108.79334,139.69094 94.418058,130.73082"
       style="fill:none;stroke:#ff0000;stroke-width:1.3151989px;stroke-linecap:butt;stroke-linejoin:miter;stroke-opacity:1" />
    <path
       sodipodi:nodetypes="cssccscsccc"
       inkscape:connector-curvature="0"
       id="path1070"
       d="m 145.67122,203.84224 c 0.93193,-0.2883 1.70472,-0.78534 2.54945,-1.27287 l 0.2813,-0.16255 c 0.0937,-0.0542 0.18839,-0.17001 0.28135,-0.16254 0.83297,0.0726 0.98962,0.53092 1.97386,0.17099 0.20181,-0.0706 0.37511,-0.21624 0.56258,-0.3246 l 1.40653,-0.81183 0.56258,-0.32459 c 0.0938,-0.0542 0.18005,-0.14416 0.28135,-0.16256 0.14346,-0.0248 0.25217,0.0612 0.39489,0.0348 0.10707,-0.0199 1.15511,-0.66669 1.40653,-0.81179"
       style="fill:none;stroke:#3f3f3f;stroke-width:1.52048278px;stroke-linecap:butt;stroke-linejoin:miter;stroke-opacity:1" />
    <path
       sodipodi:nodetypes="ccccccccccc"
       inkscape:connector-curvature="0"
       id="path1072"
       d="m 145.64023,203.82848 c 0.70066,-0.43297 0.14341,-1.34988 0.43818,-1.94578 0.0774,-0.15709 0.24441,-0.26843 0.2895,-0.43793 0.0452,-0.16901 -0.0523,-0.35045 -0.0313,-0.52423 0.011,-0.093 0.35185,-1.44582 0.43008,-1.60399 0.18234,-0.36883 0.35036,-0.37131 0.37541,-0.75904 0.38901,-0.36138 -0.13402,-0.48068 -0.14878,-0.72759 -0.006,-0.11035 0.0927,-0.21026 0.0859,-0.32111 -0.005,-0.0775 -0.11264,-0.12576 -0.11731,-0.20331 -0.004,-0.0691 0.21961,-0.90419 0.25804,-0.96235 0.0433,-0.0651 0.16016,-0.0522 0.2034,-0.11732"
       style="fill:none;stroke:#3f3f3f;stroke-width:1.3151989px;stroke-linecap:butt;stroke-linejoin:miter;stroke-opacity:1" />
    <path
       sodipodi:nodetypes="ccccccccccc"
       inkscape:connector-curvature="0"
       id="path1074"
       d="m 145.64023,203.82848 c 0.0134,0.0606 0.10046,0.1695 0.0398,0.18243 -0.0613,0.01 -0.078,-0.23164 -0.0398,-0.18243 0.37668,0.48018 0.71975,0.98571 1.06473,1.48891 0.0884,0.12924 0.15654,0.27141 0.23483,0.40711 0.22433,0.23214 0.47371,0.4424 0.67302,0.69622 0.4434,0.56499 0.15345,0.62742 0.7904,0.89957 0.20355,0.087 0.42778,0.11482 0.64161,0.17199 0.32071,0.086 0.64162,0.17199 0.96242,0.25798 0.16896,0.0447 0.82241,0.26643 0.9624,0.25799 0.0781,-0.005 0.1279,-0.13769 0.20341,-0.11732"
       style="fill:none;stroke:#3f3f3f;stroke-width:1.3151989px;stroke-linecap:butt;stroke-linejoin:miter;stroke-opacity:1" />
    <path
       sodipodi:nodetypes="cscscccccccccc"
       inkscape:connector-curvature="0"
       id="path1076"
       d="m 145.64023,203.82848 c -0.92851,0.46477 -1.82384,0.9872 -2.72198,1.50561 l -1.01705,0.58701 -0.20341,0.11731 c -0.0678,0.0398 -0.12536,0.11234 -0.2034,0.11731 -0.11085,0.005 -0.21037,-0.0925 -0.32097,-0.0865 -0.41844,0.0249 0.004,0.5626 -0.64161,-0.17198 -0.42784,-0.48715 -0.83997,-1.94455 -1.49485,-2.12006 -0.16906,-0.0447 -0.34949,0.0447 -0.52408,0.0299 -0.22065,-0.0149 -0.42068,-0.15758 -0.64161,-0.17199 -0.17483,-0.01 -0.35552,0.076 -0.52434,0.0299 -0.16906,-0.0447 -0.26335,-0.29974 -0.43823,-0.28931 -0.3476,0.0199 0.0293,0.49062 0.0313,0.52427 0.006,0.11035 -0.0368,0.22171 -0.0859,0.32112"
       style="fill:none;stroke:#3f3f3f;stroke-width:1.3151989px;stroke-linecap:butt;stroke-linejoin:miter;stroke-opacity:1" />
    <path
       sodipodi:nodetypes="cccccccccccccc"
       inkscape:connector-curvature="0"
       id="path1078"
       d="m 145.64023,203.82848 c -0.9174,0.1029 -0.87225,2.91395 -1.31336,3.94619 -0.11924,0.27936 -0.60667,0.82422 -0.78222,0.99382 -0.0559,0.0551 -0.16016,0.0522 -0.2034,0.11731 -0.0609,0.0925 -0.0124,0.23811 -0.0862,0.32062 -0.10354,0.11781 -0.30327,0.1173 -0.40682,0.23462 -0.0736,0.0825 -0.0573,0.21374 -0.0859,0.32112 -0.0283,0.10786 -0.0573,0.21374 -0.0859,0.32111 -0.0676,0.25202 -0.33787,1.46451 -0.43008,1.60399 -0.15932,0.24059 -0.52365,0.0398 -0.49271,0.55584 0.009,0.15459 0.31809,0.4434 0.35218,0.61022 0.0348,0.17149 -0.004,0.35293 0.0313,0.52423 0.0154,0.076 0.13764,0.12775 0.11726,0.2033 -0.0452,0.169 -0.21181,0.28135 -0.2895,0.43793"
       style="fill:none;stroke:#3f3f3f;stroke-width:1.3151989px;stroke-linecap:butt;stroke-linejoin:miter;stroke-opacity:1" />
    <path
       sodipodi:nodetypes="cc"
       inkscape:connector-curvature="0"
       id="path1080"
       d="M 284.43291,45.576162 350.523,134.6436"
       style="fill:#b3b3b3;fill-opacity:1;fill-rule:nonzero;stroke:#757575;stroke-width:1.3151989px;stroke-linecap:butt;stroke-linejoin:miter;stroke-opacity:1" />
    <path
       inkscape:connector-curvature="0"
       id="path1082"
       d="m 338.1561,117.47272 2.49628,16.75414"
       style="fill:none;stroke:#ff0000;stroke-width:1.3151989px;stroke-linecap:butt;stroke-linejoin:miter;stroke-opacity:1" />
    <path
       style="fill:none;stroke:#ff0000;stroke-width:1.3151989px;stroke-linecap:butt;stroke-linejoin:miter;stroke-opacity:1"
       d="m 337.75821,117.76763 15.30411,7.26065"
       id="path1084"
       inkscape:connector-curvature="0" />
    <path
       style="fill:none;stroke:#ff0000;stroke-width:1.3151989px;stroke-linecap:butt;stroke-linejoin:miter;stroke-opacity:1"
       d="m 342.8552,123.81231 2.49623,16.75414"
       id="path1086"
       inkscape:connector-curvature="0" />
    <path
       inkscape:connector-curvature="0"
       id="path1088"
       d="m 342.4573,124.10724 15.30407,7.26065"
       style="fill:none;stroke:#ff0000;stroke-width:1.3151989px;stroke-linecap:butt;stroke-linejoin:miter;stroke-opacity:1" />
    <path
       inkscape:connector-curvature="0"
       id="path1090"
       d="m 333.45705,111.13317 2.49624,16.75408"
       style="fill:none;stroke:#ff0000;stroke-width:1.3151989px;stroke-linecap:butt;stroke-linejoin:miter;stroke-opacity:1" />
    <path
       style="fill:none;stroke:#ff0000;stroke-width:1.3151989px;stroke-linecap:butt;stroke-linejoin:miter;stroke-opacity:1"
       d="m 333.05915,111.42809 15.30407,7.2606"
       id="path1092"
       inkscape:connector-curvature="0" />
    <path
       style="fill:none;stroke:#ff0000;stroke-width:1.3151989px;stroke-linecap:butt;stroke-linejoin:miter;stroke-opacity:1"
       d="m 328.75795,104.79357 2.49628,16.75414"
       id="path1094"
       inkscape:connector-curvature="0" />
    <path
       inkscape:connector-curvature="0"
       id="path1096"
       d="m 328.36006,105.08849 15.30411,7.26064"
       style="fill:none;stroke:#ff0000;stroke-width:1.3151989px;stroke-linecap:butt;stroke-linejoin:miter;stroke-opacity:1" />
    <path
       sodipodi:nodetypes="cssccscsccc"
       inkscape:connector-curvature="0"
       id="path1098"
       d="m 284.40057,45.565972 c -0.89303,0.392699 -1.60401,0.974782 -2.38756,1.555573 l -0.26102,0.193369 c -0.0879,0.06362 -0.16866,0.189887 -0.26101,0.193363 -0.83582,0.0249 -1.04373,-0.414565 -1.98047,0.05518 -0.19253,0.09296 -0.34807,0.257986 -0.52203,0.386733 l -1.30467,0.967029 -0.52203,0.386725 c -0.0879,0.06362 -0.161,0.164534 -0.26101,0.193369 -0.13948,0.03978 -0.25754,-0.02982 -0.39618,0.0099 -0.10374,0.03476 -1.07128,0.794339 -1.30466,0.967075"
       style="fill:none;stroke:#3f3f3f;stroke-width:1.52048278px;stroke-linecap:butt;stroke-linejoin:miter;stroke-opacity:1" />
    <path
       sodipodi:nodetypes="ccccccccccc"
       inkscape:connector-curvature="0"
       id="path1100"
       d="m 284.43291,45.576162 c -0.64654,0.510306 0.0114,1.357388 -0.21315,1.983065 -0.0587,0.165035 -0.2126,0.294276 -0.23741,0.468252 -0.0258,0.17299 0.0919,0.341996 0.091,0.517318 0.002,0.09394 -0.18516,1.476438 -0.24396,1.64261 -0.13899,0.387226 -0.30398,0.410588 -0.28622,0.796925 -0.3438,0.404623 0.18774,0.461785 0.23084,0.705858 0.0193,0.109354 -0.0664,0.219708 -0.0487,0.328569 0.0139,0.07705 0.12617,0.111842 0.13938,0.188398 0.0105,0.06758 -0.11641,0.923077 -0.14539,0.985764 -0.0348,0.0696 -0.15311,0.07005 -0.18865,0.140178"
       style="fill:none;stroke:#3f3f3f;stroke-width:1.3151989px;stroke-linecap:butt;stroke-linejoin:miter;stroke-opacity:1" />
    <path
       sodipodi:nodetypes="ccccccccccc"
       inkscape:connector-curvature="0"
       id="path1102"
       d="m 284.43291,45.576162 c -0.0218,-0.05914 -0.11875,-0.157073 -0.0602,-0.17696 0.0594,-0.01988 0.1036,0.221204 0.0602,0.17696 -0.42923,-0.433951 -0.82758,-0.897135 -1.22777,-1.357732 -0.1027,-0.117808 -0.1866,-0.251518 -0.27966,-0.377282 -0.249,-0.204801 -0.52097,-0.385238 -0.74807,-0.614844 -0.50504,-0.51065 -0.22405,-0.605798 -0.88796,-0.803482 -0.21191,-0.0631 -0.43813,-0.06512 -0.65705,-0.09793 -0.32847,-0.04972 -0.65703,-0.09743 -0.9856,-0.146143 -0.17303,-0.02482 -0.8474,-0.170994 -0.98556,-0.146144 -0.0772,0.01488 -0.11234,0.150622 -0.18864,0.140178"
       style="fill:none;stroke:#3f3f3f;stroke-width:1.3151989px;stroke-linecap:butt;stroke-linejoin:miter;stroke-opacity:1" />
    <path
       sodipodi:nodetypes="cscscccccccccc"
       inkscape:connector-curvature="0"
       id="path1104"
       d="m 284.43291,45.576162 c 0.86945,-0.567662 1.6992,-1.189018 2.53231,-1.806546 l 0.94332,-0.699294 0.18864,-0.140177 c 0.0625,-0.04471 0.11185,-0.125764 0.18866,-0.139685 0.1096,-0.01988 0.21975,0.06811 0.32892,0.04972 0.41302,-0.07259 -0.0676,-0.558272 0.65708,0.09793 0.48068,0.434946 1.05643,1.835972 1.72704,1.935591 0.17309,0.02482 0.3426,-0.08202 0.51715,-0.09097 0.22101,-0.0099 0.43589,0.10886 0.65709,0.09743 0.17498,-0.0099 0.34443,-0.116322 0.51744,-0.09047 0.17308,0.02482 0.29576,0.26793 0.46834,0.237607 0.34305,-0.06063 -0.0852,-0.484162 -0.091,-0.517364 -0.0194,-0.10936 0.012,-0.224186 0.0488,-0.328575"
       style="fill:none;stroke:#3f3f3f;stroke-width:1.3151989px;stroke-linecap:butt;stroke-linejoin:miter;stroke-opacity:1" />
    <path
       sodipodi:nodetypes="cccccccccccccc"
       inkscape:connector-curvature="0"
       id="path1106"
       d="m 284.43291,45.576162 c 0.89959,-0.207283 0.53395,-2.994525 0.85437,-4.070309 0.0867,-0.291292 0.50858,-0.888089 0.66349,-1.076787 0.0488,-0.06115 0.1531,-0.07005 0.18865,-0.140177 0.0492,-0.09792 -0.0163,-0.2381 0.0492,-0.328075 0.0892,-0.129239 0.28761,-0.151107 0.37729,-0.279854 0.0645,-0.08998 0.0323,-0.219215 0.0488,-0.328575 0.0159,-0.110348 0.0329,-0.219215 0.0487,-0.328568 0.0388,-0.257987 0.16757,-1.493641 0.24401,-1.64261 0.13103,-0.256992 0.51542,-0.100412 0.42744,-0.607338 -0.0283,-0.152603 -0.36669,-0.40413 -0.41948,-0.566032 -0.0541,-0.166524 -0.0363,-0.350444 -0.0911,-0.517064 -0.0244,-0.07409 -0.15136,-0.110849 -0.13938,-0.188392 0.0258,-0.172989 0.17695,-0.304711 0.2374,-0.468251"
       style="fill:none;stroke:#3f3f3f;stroke-width:1.3151989px;stroke-linecap:butt;stroke-linejoin:miter;stroke-opacity:1" />
    <path
       sodipodi:nodetypes="cc"
       inkscape:connector-curvature="0"
       id="path1108"
       d="m 464.51101,93.382779 90.71234,63.813631"
       style="fill:#b3b3b3;fill-opacity:1;fill-rule:nonzero;stroke:#757575;stroke-width:1.3151989px;stroke-linecap:butt;stroke-linejoin:miter;stroke-opacity:1" />
    <path
       inkscape:connector-curvature="0"
       id="path1110"
       d="m 538.09068,144.77669 7.63023,15.12321"
       style="fill:none;stroke:#ff0000;stroke-width:1.3151989px;stroke-linecap:butt;stroke-linejoin:miter;stroke-opacity:1" />
    <path
       style="fill:none;stroke:#ff0000;stroke-width:1.3151989px;stroke-linecap:butt;stroke-linejoin:miter;stroke-opacity:1"
       d="m 537.80551,145.18163 16.8098,2.08853"
       id="path1112"
       inkscape:connector-curvature="0" />
    <path
       style="fill:none;stroke:#ff0000;stroke-width:1.3151989px;stroke-linecap:butt;stroke-linejoin:miter;stroke-opacity:1"
       d="m 544.54252,149.32039 7.63028,15.12321"
       id="path1114"
       inkscape:connector-curvature="0" />
    <path
       inkscape:connector-curvature="0"
       id="path1116"
       d="m 544.25735,149.72536 16.80981,2.08855"
       style="fill:none;stroke:#ff0000;stroke-width:1.3151989px;stroke-linecap:butt;stroke-linejoin:miter;stroke-opacity:1" />
    <path
       inkscape:connector-curvature="0"
       id="path1118"
       d="m 531.63879,140.23301 7.63028,15.1232"
       style="fill:none;stroke:#ff0000;stroke-width:1.3151989px;stroke-linecap:butt;stroke-linejoin:miter;stroke-opacity:1" />
    <path
       style="fill:none;stroke:#ff0000;stroke-width:1.3151989px;stroke-linecap:butt;stroke-linejoin:miter;stroke-opacity:1"
       d="m 531.35367,140.63794 16.80976,2.08858"
       id="path1120"
       inkscape:connector-curvature="0" />
    <path
       style="fill:none;stroke:#ff0000;stroke-width:1.3151989px;stroke-linecap:butt;stroke-linejoin:miter;stroke-opacity:1"
       d="m 525.18695,135.68938 7.63027,15.12315"
       id="path1122"
       inkscape:connector-curvature="0" />
    <path
       inkscape:connector-curvature="0"
       id="path1124"
       d="m 524.90178,136.09424 16.80981,2.08855"
       style="fill:none;stroke:#ff0000;stroke-width:1.3151989px;stroke-linecap:butt;stroke-linejoin:miter;stroke-opacity:1" />
    <path
       sodipodi:nodetypes="cssccscsccc"
       inkscape:connector-curvature="0"
       id="path1126"
       d="m 464.47711,93.383228 c -0.7245,0.653271 -1.21681,1.429114 -1.77842,2.226532 l -0.1869,0.264947 c -0.0626,0.08898 -0.0994,0.233629 -0.18691,0.265941 -0.78563,0.286321 -1.12117,-0.06609 -1.86336,0.673203 -0.1536,0.149125 -0.24954,0.353919 -0.37381,0.530984 l -0.93506,1.32776 -0.37431,0.530984 c -0.0626,0.08897 -0.10289,0.206783 -0.1869,0.265933 -0.1198,0.08351 -0.2545,0.05069 -0.37282,0.133719 -0.0874,0.06661 -0.76793,1.090399 -0.93506,1.327759"
       style="fill:none;stroke:#3f3f3f;stroke-width:1.52048278px;stroke-linecap:butt;stroke-linejoin:miter;stroke-opacity:1" />
    <path
       sodipodi:nodetypes="ccccccccccc"
       inkscape:connector-curvature="0"
       id="path1128"
       d="m 464.51101,93.382779 c -0.45384,0.687423 0.43743,1.285064 0.42003,1.949714 -0.005,0.175465 -0.10887,0.346466 -0.0791,0.519254 0.0298,0.173477 0.19485,0.295764 0.24854,0.46278 0.0299,0.08898 0.2883,1.459833 0.28384,1.636248 -0.01,0.41109 -0.16206,0.484161 -0.0199,0.846581 -0.20082,0.491122 0.3231,0.379772 0.44042,0.597993 0.0542,0.09694 0.004,0.230153 0.0572,0.32708 0.0398,0.06811 0.15509,0.06661 0.19187,0.135207 0.0299,0.06064 0.18094,0.912794 0.1705,0.981694 -0.01,0.0765 -0.12328,0.11482 -0.13571,0.19237"
       style="fill:none;stroke:#3f3f3f;stroke-width:1.3151989px;stroke-linecap:butt;stroke-linejoin:miter;stroke-opacity:1" />
    <path
       sodipodi:nodetypes="ccccccccccc"
       inkscape:connector-curvature="0"
       id="path1130"
       d="m 464.51101,93.382779 c -0.0398,-0.05016 -0.16255,-0.111341 -0.11235,-0.149619 0.0498,-0.03977 0.16702,0.178455 0.11235,0.149619 -0.54382,-0.27687 -1.06749,-0.591877 -1.59201,-0.903496 -0.13322,-0.08203 -0.256,-0.180437 -0.38376,-0.270413 -0.30073,-0.116814 -0.61588,-0.202311 -0.90319,-0.348955 -0.63964,-0.326579 -0.40263,-0.505079 -1.09537,-0.48366 -0.22121,0.0052 -0.43643,0.07556 -0.65456,0.113338 -0.32708,0.05666 -0.65467,0.113331 -0.98179,0.1705 -0.17299,0.02983 -0.85806,0.103889 -0.98169,0.1705 -0.0681,0.03978 -0.0587,0.178448 -0.13521,0.191868"
       style="fill:none;stroke:#3f3f3f;stroke-width:1.3151989px;stroke-linecap:butt;stroke-linejoin:miter;stroke-opacity:1" />
    <path
       sodipodi:nodetypes="cscscccccccccc"
       inkscape:connector-curvature="0"
       id="path1132"
       d="m 464.51101,93.382779 c 0.64719,-0.812034 1.24002,-1.662443 1.83711,-2.510266 l 0.67619,-0.960114 0.13521,-0.192375 c 0.0447,-0.0631 0.0666,-0.155085 0.1352,-0.191875 0.0989,-0.04972 0.23015,-0.0037 0.32708,-0.05719 0.36883,-0.198334 -0.24009,-0.508863 0.65461,-0.113338 0.59287,0.261963 1.57943,1.41147 2.2476,1.295305 0.17349,-0.02982 0.29925,-0.185415 0.4623,-0.249044 0.20579,-0.08152 0.44788,-0.03476 0.6546,-0.113331 0.16354,-0.06168 0.2908,-0.21822 0.46279,-0.248543 0.17348,-0.02983 0.36486,0.161058 0.5195,0.07804 0.3072,-0.165036 -0.23264,-0.432464 -0.24854,-0.462787 -0.0547,-0.09693 -0.0592,-0.216726 -0.0572,-0.327575"
       style="fill:none;stroke:#3f3f3f;stroke-width:1.3151989px;stroke-linecap:butt;stroke-linejoin:miter;stroke-opacity:1" />
    <path
       sodipodi:nodetypes="cccccccccccccc"
       inkscape:connector-curvature="0"
       id="path1134"
       d="m 464.51101,93.382779 c 0.78901,-0.479182 -0.43346,-3.010777 -0.46677,-4.132794 -0.01,-0.303718 0.20381,-1.002863 0.29229,-1.230578 0.0299,-0.07356 0.12328,-0.114826 0.13521,-0.192376 0.0149,-0.109854 -0.087,-0.221697 -0.0567,-0.32708 0.0447,-0.150614 0.22617,-0.233629 0.27042,-0.383742 0.0299,-0.105885 -0.0398,-0.218221 -0.0572,-0.327582 -0.0199,-0.10886 -0.0398,-0.21822 -0.0571,-0.327581 -0.0447,-0.256491 -0.30869,-1.470868 -0.28383,-1.636195 0.0447,-0.285326 0.45781,-0.257493 0.21375,-0.711429 -0.0736,-0.136693 -0.47472,-0.268422 -0.57607,-0.405616 -0.10439,-0.140671 -0.14714,-0.321115 -0.24904,-0.462286 -0.0498,-0.06212 -0.17846,-0.05869 -0.19189,-0.135207 -0.0298,-0.173483 0.0741,-0.343984 0.0791,-0.519254"
       style="fill:none;stroke:#3f3f3f;stroke-width:1.3151989px;stroke-linecap:butt;stroke-linejoin:miter;stroke-opacity:1" />
  </g>
</svg>
